<?xml version="1.0" encoding="utf-8"?>
<!-- Generator: Adobe Illustrator 18.1.1, SVG Export Plug-In . SVG Version: 6.00 Build 0)  -->
<!DOCTYPE svg PUBLIC "-//W3C//DTD SVG 1.1//EN" "http://www.w3.org/Graphics/SVG/1.1/DTD/svg11.dtd">
<svg version="1.1" id="Layer_1" xmlns="http://www.w3.org/2000/svg" xmlns:xlink="http://www.w3.org/1999/xlink" x="0px" y="0px"
	 width="156.3px" height="119.7px" viewBox="0 0 156.3 119.7" enable-background="new 0 0 156.3 119.7" xml:space="preserve">
<path fill-rule="evenodd" clip-rule="evenodd" fill="#C1C4D6" d="M12.9,3.7H144c6,0,10.9,4.9,10.9,10.9v92.9c0,6-4.9,10.9-10.9,10.9
	H12.9c-6,0-10.9-4.9-10.9-10.9V14.6C1.9,8.6,6.9,3.7,12.9,3.7z"/>
<path fill-rule="evenodd" clip-rule="evenodd" fill="#E0E1EA" d="M12.9,2.2H144c6,0,10.9,4.9,10.9,10.9V106c0,6-4.9,10.9-10.9,10.9
	H12.9c-6,0-10.9-4.9-10.9-10.9V13.1C1.9,7.1,6.9,2.2,12.9,2.2z"/>
<path fill-rule="evenodd" clip-rule="evenodd" fill="#C1C4D6" d="M79.7,102.6c23.8,0,43.2-19.4,43.2-43.2
	c0-23.8-19.4-43.2-43.2-43.2c-23.8,0-43.2,19.4-43.2,43.2C36.5,83.1,55.9,102.6,79.7,102.6z"/>
<path fill-rule="evenodd" clip-rule="evenodd" fill="#C1C4D6" d="M20.3,28.9L20.3,28.9c0.5,0,0.8,0.4,0.8,0.8v13.8
	c0.1,0.3,0.4,0.6,0.8,0.6c0.4,0,0.7-0.3,0.7-0.7V29.8c0-0.5,0.4-0.8,0.8-0.8l0,0c0.5,0,0.8,0.4,0.8,0.8v13.8
	c0.1,0.3,0.4,0.6,0.7,0.6c0.4,0,0.7-0.3,0.8-0.7v-0.1c0,0,0,0,0,0c0,0,0-0.1,0-0.1h0V29.8c0-0.5,0.4-0.8,0.8-0.8l0,0
	c0.5,0,0.8,0.4,0.8,0.8v13.8c0.1,0.3,0.4,0.6,0.7,0.6c0.4,0,0.7-0.3,0.7-0.7c0,0,0-0.1,0-0.1l0,0V29.8c0-0.5,0.4-0.8,0.8-0.8l0,0
	c0.5,0,0.8,0.4,0.8,0.8v16.8c0,2.2-2.6,4.8-4.3,5.4L27.8,91c0,0.1,0,0.3,0,0.4c0,2-1.2,3.6-2.7,3.6c-1.5,0-2.7-1.6-2.7-3.6
	c0-0.2,0-0.4,0-0.6l1.4-38.9c-1.8-0.5-4.4-2.8-4.4-5.2v-17C19.4,29.3,19.8,28.9,20.3,28.9z"/>
<path fill-rule="evenodd" clip-rule="evenodd" fill="#C1C4D6" d="M133.6,27.5L133.6,27.5c1.8,0,3.3,1.5,3.3,3.3v27.4l0.1-0.1
	l0.1,33.2h0c0,0.1,0,0.1,0,0.2c0,2-1.2,3.6-2.7,3.6c-1.4,0-2.6-1.6-2.6-3.6c0-0.1,0-0.1,0-0.2h0l1-26.6c-1.4-0.4-2.4-1.7-2.4-3.2
	V30.8C130.3,29,131.8,27.5,133.6,27.5z"/>
<path fill-rule="evenodd" clip-rule="evenodd" fill="#FFFFFF" d="M78.4,101.3c23.8,0,43.2-19.4,43.2-43.2
	c0-23.8-19.4-43.2-43.2-43.2c-23.8,0-43.2,19.4-43.2,43.2C35.2,81.9,54.6,101.3,78.4,101.3z"/>
<path fill-rule="evenodd" clip-rule="evenodd" fill="#F4F4F8" d="M48.8,64.2C52.2,80.4,68.2,91,84.5,87.7
	c16.3-3.4,26.8-19.4,23.5-35.7c-3.4-16.3-19.4-26.8-35.7-23.5C56.1,31.8,45.5,47.9,48.8,64.2z"/>
<path fill-rule="evenodd" clip-rule="evenodd" fill="#FFFFFF" d="M50.9,53.2c3.2-15.5,18.4-25.5,33.8-22.3
	c15.5,3.2,25.5,18.4,22.3,33.8C103.8,80.1,88.7,90.1,73.2,87C57.8,83.8,47.7,68.6,50.9,53.2z"/>
<path fill-rule="evenodd" clip-rule="evenodd" fill="#FFFFFF" d="M19,27.7L19,27.7c0.5,0,0.8,0.4,0.8,0.8v13.8
	c0.1,0.4,0.4,0.6,0.7,0.6c0.4,0,0.7-0.3,0.7-0.7V28.5c0-0.5,0.4-0.8,0.8-0.8l0,0c0.5,0,0.8,0.4,0.8,0.8v13.8
	c0.1,0.4,0.4,0.6,0.8,0.6c0.4,0,0.7-0.3,0.7-0.7v-0.1l0,0c0,0,0-0.1,0-0.1l0,0V28.5c0-0.5,0.4-0.8,0.8-0.8l0,0
	c0.5,0,0.8,0.4,0.8,0.8v13.8c0.1,0.4,0.4,0.6,0.7,0.6c0.4,0,0.8-0.3,0.8-0.7c0,0,0-0.1,0-0.1h0V28.5c0-0.5,0.4-0.8,0.8-0.8l0,0
	c0.5,0,0.8,0.4,0.8,0.8v16.8c0,2.2-2.6,4.8-4.3,5.3l1.4,39.1c0,0.1,0,0.3,0,0.4c0,2-1.2,3.6-2.7,3.6c-1.4,0-2.7-1.6-2.7-3.6
	c0-0.2,0-0.4,0-0.6l1.4-38.9c-1.7-0.5-4.4-2.7-4.4-5.2v-17C18.2,28,18.6,27.7,19,27.7z"/>
<path fill-rule="evenodd" clip-rule="evenodd" fill="#FFFFFF" d="M132.3,26.2L132.3,26.2c1.8,0,3.3,1.5,3.3,3.3v27.3l0.1-0.1
	l0.1,33.2l0,0c0,0.1,0,0.1,0,0.2c0,2-1.2,3.6-2.6,3.6c-1.5,0-2.6-1.6-2.6-3.6c0-0.1,0-0.1,0-0.2h0l0.9-26.6
	c-1.4-0.4-2.4-1.6-2.4-3.2V29.5C129,27.7,130.5,26.2,132.3,26.2z"/>
</svg>
